<svg xmlns="http://www.w3.org/2000/svg" viewBox="0 0 420 90">
  <rect width="420" height="90" fill="none"/>
  <g transform="translate(10,10)">
    <path d="M35 50 C20 44,18 27,25 18 C31 10,43 10,50 18 C56 26,55 43,42 50 L42 66 L28 66 L28 50 Z" fill="#66db5a"/>
    <path d="M23 23 C10 16,8 6,15 0 C19 8,28 11,33 19 Z" fill="#9cf786"/>
    <path d="M50 20 C58 9,67 7,74 12 C66 16,61 22,54 29 Z" fill="#9cf786"/>
  </g>
  <text x="95" y="40" fill="#f3f6f6" font-size="44" font-family="Inter,Arial,sans-serif" font-weight="800">BULLS</text>
  <text x="97" y="68" fill="#d1d8dc" font-size="20" font-family="Inter,Arial,sans-serif" font-weight="600">TRADING ACADEMY</text>
</svg>
